<svg width="359" height="216" viewBox="0 0 359 216" fill="none" xmlns="http://www.w3.org/2000/svg">
<path d="M31.8003 9.11616C31.8003 4.08124 35.8819 -0.000366211 40.9168 -0.000366211H317.619C322.654 -0.000366211 326.736 4.08124 326.736 9.11616V201.235H31.8003V9.11616Z" fill="#23213B"/>
<path d="M43.0866 213.947C42.9884 214.192 42.6741 214.712 42.2027 214.83C42.1536 215.173 41.9375 215.86 41.4661 215.86H21.2827C20.8112 215.86 20.5952 215.173 20.5461 214.83C20.0746 214.712 19.7603 214.192 19.6621 213.947H43.0866Z" fill="#23213B"/>
<path d="M338.751 213.947C338.653 214.192 338.338 214.712 337.867 214.83C337.818 215.173 337.602 215.86 337.13 215.86H316.947C316.475 215.86 316.259 215.173 316.21 214.83C315.739 214.712 315.425 214.192 315.326 213.947H338.751Z" fill="#23213B"/>
<path d="M358.294 202.466V201.09H0.00146484V202.466C0.00146484 206.484 0.00146484 208.494 0.772219 210.029C1.45019 211.379 2.532 212.477 3.86261 213.165C5.37529 213.947 7.35552 213.947 11.316 213.947H346.979C350.94 213.947 352.92 213.947 354.433 213.165C355.763 212.477 356.845 211.379 357.523 210.029C358.294 208.494 358.294 206.484 358.294 202.466Z" fill="#1C1B2D"/>
<path d="M148.075 201.09H210.393C210.393 203.773 208.218 205.949 205.535 205.949H152.933C150.25 205.949 148.075 203.773 148.075 201.09Z" fill="#353447"/>
<g clip-path="url(#clip0_0_285)">
<path d="M40.661 5.09528C38.3772 5.09528 36.5259 6.93938 36.5259 9.2142V189.858H322.142V9.2142C322.142 6.93938 320.291 5.09528 318.007 5.09528H194.196C193.794 5.09528 193.468 5.42108 193.468 5.82299V8.73383C193.468 9.40367 192.924 9.94669 192.254 9.94669H166.28C165.476 9.94669 164.824 9.29507 164.824 8.49126V5.82299C164.824 5.42108 164.498 5.09528 164.095 5.09528H40.661Z" fill="#353447"/>
<g clip-path="url(#clip1_0_285)">
<path d="M14.8935 -15C12.1909 -15 10 -12.8142 10 -10.1178V204H348V-10.1178C348 -12.8142 345.809 -15 343.107 -15H196.588C196.112 -15 195.726 -14.6138 195.726 -14.1374V-10.6872C195.726 -9.89325 195.083 -9.24962 194.29 -9.24962H163.552C162.6 -9.24962 161.828 -10.022 161.828 -10.9747V-14.1374C161.828 -14.6138 161.443 -15 160.967 -15H14.8935Z" fill="#080356"/>
<g clip-path="url(#clip2_0_285)">
<rect x="2.14502" y="-230.101" width="354.138" height="561.581" rx="56" fill="url(#paint0_radial_0_285)"/>
<path opacity="0.4" d="M354.474 90.845L200.743 169.355C186.605 176.575 177.706 191.12 177.706 207.007V309.439" stroke="url(#paint1_linear_0_285)"/>
<path opacity="0.4" d="M6.06641 54.0101L208.974 155.131C217.17 159.215 222.35 167.59 222.35 176.754V306.721" stroke="url(#paint2_linear_0_285)"/>
<path opacity="0.4" d="M132.458 -13.923L342.293 90.5226C350.494 94.6046 355.68 102.982 355.68 112.149V330.573" stroke="url(#paint3_linear_0_285)"/>
<path opacity="0.4" d="M44.376 27.7427L254.211 132.188C262.412 136.27 267.598 144.647 267.598 153.815V331.479" stroke="url(#paint4_linear_0_285)"/>
<path opacity="0.0946448" d="M44.376 27.7427L254.211 132.188C262.412 136.27 267.598 144.647 267.598 153.815V331.479" stroke="url(#paint5_linear_0_285)" stroke-dasharray="0.91 1"/>
<path opacity="0.4" d="M2.74854 99.6008L153.298 169.748C168.186 176.685 177.706 191.631 177.706 208.069V227.617" stroke="url(#paint6_linear_0_285)"/>
<path opacity="0.4" d="M87.814 5.40021L297.649 109.846C305.85 113.928 311.036 122.305 311.036 131.473V330.574" stroke="url(#paint7_linear_0_285)"/>
<path opacity="0.840429" d="M87.814 5.40021L297.649 109.846C305.85 113.928 311.036 122.305 311.036 131.473V330.574" stroke="url(#paint8_linear_0_285)" stroke-dasharray="0.16 1"/>
<path opacity="0.4" d="M352.663 50.689L147.456 155.2C139.364 159.322 134.268 167.64 134.268 176.728V331.479" stroke="url(#paint9_linear_0_285)"/>
<path opacity="0.4" d="M221.747 -13.923L16.5397 90.5884C8.44766 94.7097 3.35156 103.028 3.35156 112.116V266.867" stroke="url(#paint10_linear_0_285)"/>
<path opacity="0.4" d="M265.788 5.40021L60.5807 109.912C52.4887 114.033 47.3926 122.351 47.3926 131.439V286.19" stroke="url(#paint11_linear_0_285)"/>
<path opacity="0.4" d="M308.622 27.7427L103.415 132.254C95.3231 136.375 90.2271 144.694 90.2271 153.781V292.531" stroke="url(#paint12_linear_0_285)"/>
<path opacity="0.997892" d="M308.622 27.7427L103.415 132.254C95.3231 136.375 90.2271 144.694 90.2271 153.781V292.531" stroke="url(#paint13_linear_0_285)" stroke-dasharray="0 1"/>
<path opacity="0.4" d="M134.268 72.4276L89.0205 95.3739L132.76 117.112L178.008 94.1662L134.268 72.4276Z" fill="white" fill-opacity="0.1"/>
<path opacity="0.4" d="M263.073 50.9909C249.6 57.9352 222.471 71.8841 221.747 72.1257L266.995 94.4681L308.019 73.6353L263.073 50.9909Z" fill="white" fill-opacity="0.1"/>
<path opacity="0.4" d="M81.7808 185.348C84.5306 185.348 132.755 208.546 165.342 224.441C173.375 228.359 182.725 228.534 190.89 224.897L279.664 185.348" stroke="url(#paint14_linear_0_285)"/>
<path d="M61.4877 67.7814L61.0329 66.8904L61.0291 66.8924L61.4877 67.7814ZM46.9339 74.1723C46.4434 74.4257 46.2511 75.0291 46.5043 75.5201C46.7576 76.0111 47.3605 76.2038 47.8511 75.9504L46.9339 74.1723ZM79.0051 58.7526L78.5457 57.864L78.5443 57.8647L79.0051 58.7526ZM70.199 63.3297L70.6537 64.2207L70.6598 64.2176L70.199 63.3297ZM61.0291 66.8924L46.9339 74.1723L47.8511 75.9504L61.9462 68.6705L61.0291 66.8924ZM96.4038 48.6174L78.5457 57.864L79.4646 59.6411L97.3227 50.3946L96.4038 48.6174ZM78.5443 57.8647L69.7381 62.4419L70.6598 64.2176L79.466 59.6404L78.5443 57.8647ZM69.7442 62.4387L61.033 66.8904L61.9424 68.6724L70.6537 64.2207L69.7442 62.4387Z" fill="url(#paint15_linear_0_285)" fill-opacity="0.8"/>
<path d="M349.035 96.7687C349.472 97.1066 350.1 97.0264 350.438 96.5895C350.776 96.1526 350.696 95.5246 350.259 95.1867L349.035 96.7687ZM286.726 63.0443L286.283 63.941L286.285 63.9417L286.726 63.0443ZM303.92 71.4982L304.364 70.602L304.361 70.6009L303.92 71.4982ZM346.008 93.1629L345.396 93.954L346.008 93.1629ZM345.396 93.954L349.035 96.7687L350.259 95.1867L346.619 92.3719L345.396 93.954ZM251.469 46.7548L286.283 63.941L287.169 62.1477L252.355 44.9615L251.469 46.7548ZM286.285 63.9417L303.479 72.3956L304.361 70.6009L287.167 62.1469L286.285 63.9417ZM303.476 72.3945L339.171 90.0606L340.059 88.2682L304.364 70.602L303.476 72.3945ZM346.619 92.3719C344.574 90.7899 342.376 89.4152 340.059 88.2682L339.171 90.0606C341.37 91.1489 343.455 92.453 345.396 93.954L346.619 92.3719Z" fill="url(#paint16_linear_0_285)" fill-opacity="0.4"/>
</g>
<rect x="1.64502" y="-230.601" width="355.138" height="562.581" rx="56.5" stroke="white" stroke-opacity="0.15"/>
</g>
</g>
<defs>
<radialGradient id="paint0_radial_0_285" cx="0" cy="0" r="1" gradientUnits="userSpaceOnUse" gradientTransform="translate(179.516 -210.5) rotate(90.0815) scale(1695.52 1581.23)">
<stop offset="0.13205" stop-color="#010214"/>
<stop offset="0.279167" stop-color="#26008A"/>
<stop offset="0.341667" stop-color="white"/>
</radialGradient>
<linearGradient id="paint1_linear_0_285" x1="129.744" y1="270.792" x2="354.028" y2="92.5536" gradientUnits="userSpaceOnUse">
<stop stop-color="white" stop-opacity="0"/>
<stop offset="0.604167" stop-color="white"/>
<stop offset="1" stop-color="white" stop-opacity="0"/>
</linearGradient>
<linearGradient id="paint2_linear_0_285" x1="244.371" y1="296.153" x2="1.60189" y2="48.2664" gradientUnits="userSpaceOnUse">
<stop stop-color="white" stop-opacity="0"/>
<stop offset="0.604167" stop-color="white"/>
<stop offset="1" stop-color="white" stop-opacity="0"/>
</linearGradient>
<linearGradient id="paint3_linear_0_285" x1="372.021" y1="131.654" x2="116.015" y2="25.8695" gradientUnits="userSpaceOnUse">
<stop stop-color="white" stop-opacity="0"/>
<stop offset="0.302083" stop-color="white"/>
<stop offset="0.796875" stop-color="white" stop-opacity="0"/>
</linearGradient>
<linearGradient id="paint4_linear_0_285" x1="317.973" y1="164.515" x2="37.8483" y2="42.7612" gradientUnits="userSpaceOnUse">
<stop stop-color="white" stop-opacity="0"/>
<stop offset="0.604167" stop-color="white"/>
<stop offset="1" stop-color="white" stop-opacity="0"/>
</linearGradient>
<linearGradient id="paint5_linear_0_285" x1="317.973" y1="164.515" x2="37.8483" y2="42.7612" gradientUnits="userSpaceOnUse">
<stop stop-color="white" stop-opacity="0"/>
<stop offset="0.604167" stop-color="white"/>
<stop offset="1" stop-color="white" stop-opacity="0"/>
</linearGradient>
<linearGradient id="paint6_linear_0_285" x1="177.706" y1="180.215" x2="33.626" y2="110.211" gradientUnits="userSpaceOnUse">
<stop offset="0.372633" stop-color="white"/>
<stop offset="1" stop-color="white" stop-opacity="0"/>
</linearGradient>
<linearGradient id="paint7_linear_0_285" x1="327.377" y1="142.812" x2="75.8602" y2="32.7061" gradientUnits="userSpaceOnUse">
<stop stop-color="white" stop-opacity="0"/>
<stop offset="0.604167" stop-color="white"/>
<stop offset="1" stop-color="white" stop-opacity="0"/>
</linearGradient>
<linearGradient id="paint8_linear_0_285" x1="327.377" y1="142.812" x2="75.8602" y2="32.7061" gradientUnits="userSpaceOnUse">
<stop stop-color="white" stop-opacity="0"/>
<stop offset="0.604167" stop-color="white"/>
<stop offset="1" stop-color="white" stop-opacity="0"/>
</linearGradient>
<linearGradient id="paint9_linear_0_285" x1="111.644" y1="291.927" x2="354.666" y2="52.7236" gradientUnits="userSpaceOnUse">
<stop stop-color="white" stop-opacity="0"/>
<stop offset="0.583333" stop-color="white"/>
<stop offset="1" stop-color="white" stop-opacity="0"/>
</linearGradient>
<linearGradient id="paint10_linear_0_285" x1="-12.6359" y1="104.734" x2="222.703" y2="-11.9954" gradientUnits="userSpaceOnUse">
<stop stop-color="white" stop-opacity="0"/>
<stop offset="0.302083" stop-color="white"/>
<stop offset="0.796875" stop-color="white" stop-opacity="0"/>
</linearGradient>
<linearGradient id="paint11_linear_0_285" x1="31.4051" y1="124.057" x2="266.744" y2="7.32777" gradientUnits="userSpaceOnUse">
<stop stop-color="white" stop-opacity="0"/>
<stop offset="0.604167" stop-color="white"/>
<stop offset="1" stop-color="white" stop-opacity="0"/>
</linearGradient>
<linearGradient id="paint12_linear_0_285" x1="59.7603" y1="151.532" x2="309.619" y2="29.7872" gradientUnits="userSpaceOnUse">
<stop stop-color="white" stop-opacity="0"/>
<stop offset="0.604167" stop-color="white"/>
<stop offset="1" stop-color="white" stop-opacity="0"/>
</linearGradient>
<linearGradient id="paint13_linear_0_285" x1="59.7603" y1="151.532" x2="309.619" y2="29.7872" gradientUnits="userSpaceOnUse">
<stop stop-color="white" stop-opacity="0"/>
<stop offset="0.604167" stop-color="white"/>
<stop offset="1" stop-color="white" stop-opacity="0"/>
</linearGradient>
<linearGradient id="paint14_linear_0_285" x1="180.722" y1="185.348" x2="180.722" y2="230.636" gradientUnits="userSpaceOnUse">
<stop stop-color="white" stop-opacity="0"/>
<stop offset="1" stop-color="white"/>
</linearGradient>
<linearGradient id="paint15_linear_0_285" x1="41.322" y1="51.4038" x2="96.7386" y2="50.4266" gradientUnits="userSpaceOnUse">
<stop stop-color="white"/>
<stop offset="1" stop-color="white" stop-opacity="0"/>
</linearGradient>
<linearGradient id="paint16_linear_0_285" x1="319.142" y1="131.461" x2="250.692" y2="47.2048" gradientUnits="userSpaceOnUse">
<stop stop-color="white"/>
<stop offset="1" stop-color="white" stop-opacity="0"/>
</linearGradient>
<clipPath id="clip0_0_285">
<rect width="285.616" height="184.763" fill="white" transform="translate(36.5259 5.09528)"/>
</clipPath>
<clipPath id="clip1_0_285">
<rect width="338" height="219" fill="white" transform="translate(10 -15)"/>
</clipPath>
<clipPath id="clip2_0_285">
<rect x="2.14502" y="-230.101" width="354.138" height="561.581" rx="56" fill="white"/>
</clipPath>
</defs>
</svg>
